<svg width="93" height="93" viewBox="0 0 93 93" fill="none" xmlns="http://www.w3.org/2000/svg">
<path d="M48.8017 90.1247L48.7552 90.1324L48.4801 90.2681L48.4026 90.2836L48.3483 90.2681L48.0732 90.1286C48.0319 90.1182 48.0008 90.126 47.9802 90.1518L47.9647 90.1906L47.8988 91.8491L47.9182 91.9266L47.9569 91.9769L48.3599 92.2637L48.4181 92.2792L48.4646 92.2637L48.8676 91.9769L48.9141 91.9149L48.9296 91.8491L48.8637 90.1944C48.8533 90.1531 48.8327 90.1299 48.8017 90.1247ZM49.8247 89.6868L49.7704 89.6946L49.0574 90.0549L49.0187 90.0937L49.0071 90.1363L49.0768 91.8026L49.0962 91.8491L49.1272 91.8801L49.9061 92.2366C49.9551 92.2495 49.9926 92.2392 50.0184 92.2056L50.0339 92.1513L49.9022 89.7721C49.8893 89.723 49.8634 89.6946 49.8247 89.6868ZM47.0541 89.6946C47.037 89.6842 47.0166 89.6809 46.9971 89.6852C46.9776 89.6895 46.9605 89.7012 46.9494 89.7178L46.9262 89.7721L46.7944 92.1513C46.797 92.1978 46.819 92.2288 46.8603 92.2443L46.9184 92.2366L47.6973 91.8762L47.7361 91.8452L47.7477 91.8026L47.8174 90.1363L47.8058 90.0898L47.7671 90.0511L47.0541 89.6946Z" fill="#E13D24"/>
<path d="M46.5 7.75C67.9016 7.75 85.25 25.0984 85.25 46.5C85.25 67.9016 67.9016 85.25 46.5 85.25C25.0984 85.25 7.75 67.9016 7.75 46.5C7.75 25.0984 25.0984 7.75 46.5 7.75ZM46.5 15.5C38.7878 15.5042 31.354 18.3829 25.6505 23.5741C19.947 28.7652 16.3832 35.896 15.6553 43.5738C14.9273 51.2515 17.0873 58.925 21.7135 65.0956C26.3398 71.2662 33.1 75.4908 40.674 76.9444C48.248 78.398 56.0918 76.9762 62.6737 72.9566C69.2556 68.9371 74.103 62.6085 76.269 55.2067C78.4351 47.8049 77.7644 39.8615 74.3878 32.9277C71.0113 25.9939 65.1715 20.5677 58.0087 17.7087C58.3504 20.0643 57.9608 22.4679 56.8926 24.5949C55.8244 26.7219 54.129 28.4698 52.0355 29.6023C49.942 30.7348 47.5513 31.1975 45.1865 30.9277C42.8216 30.6579 40.5966 29.6687 38.812 28.0937C38.0708 27.4423 37.6061 26.5326 37.5127 25.5502C37.4193 24.5679 37.7041 23.5869 38.3092 22.8074C38.9142 22.0278 39.7938 21.5085 40.7686 21.3553C41.7435 21.2021 42.74 21.4265 43.555 21.9829L43.9386 22.2812C44.4089 22.696 44.9728 22.9904 45.582 23.1393C46.1911 23.2881 46.8272 23.2869 47.4358 23.1357C48.0444 22.9846 48.6071 22.688 49.0758 22.2714C49.5445 21.8549 49.9052 21.3308 50.1267 20.7442C50.3483 20.1576 50.4242 19.526 50.3479 18.9036C50.2716 18.2812 50.0455 17.6866 49.6888 17.1709C49.3321 16.6552 48.8556 16.2337 48.3002 15.9427C47.7448 15.6516 47.127 15.4997 46.5 15.5ZM56.73 59.024C57.519 59.6819 58.0145 60.6262 58.1075 61.6493C58.2005 62.6724 57.8834 63.6906 57.226 64.48C54.622 67.6071 50.8555 69.75 46.5 69.75C42.1445 69.75 38.378 67.6071 35.774 64.48C35.1452 63.6875 34.8513 62.6806 34.9549 61.6743C35.0586 60.668 35.5517 59.7422 36.3288 59.0946C37.106 58.447 38.1055 58.1289 39.114 58.2084C40.1225 58.2879 41.0599 58.7586 41.726 59.52C43.1171 61.1862 44.8182 62 46.5 62C48.1817 62 49.8829 61.1862 51.274 59.52C51.9319 58.731 52.8762 58.2355 53.8993 58.1425C54.9224 58.0495 55.9406 58.3665 56.73 59.024ZM32.9375 38.75C34.4791 38.75 35.9575 39.3624 37.0476 40.4524C38.1376 41.5425 38.75 43.0209 38.75 44.5625C38.75 46.1041 38.1376 47.5825 37.0476 48.6726C35.9575 49.7626 34.4791 50.375 32.9375 50.375C31.3959 50.375 29.9175 49.7626 28.8274 48.6726C27.7374 47.5825 27.125 46.1041 27.125 44.5625C27.125 43.0209 27.7374 41.5425 28.8274 40.4524C29.9175 39.3624 31.3959 38.75 32.9375 38.75ZM60.0625 38.75C61.6041 38.75 63.0825 39.3624 64.1725 40.4524C65.2626 41.5425 65.875 43.0209 65.875 44.5625C65.875 46.1041 65.2626 47.5825 64.1725 48.6726C63.0825 49.7626 61.6041 50.375 60.0625 50.375C58.5209 50.375 57.0425 49.7626 55.9524 48.6726C54.8624 47.5825 54.25 46.1041 54.25 44.5625C54.25 43.0209 54.8624 41.5425 55.9524 40.4524C57.0425 39.3624 58.5209 38.75 60.0625 38.75Z" fill="#E13D24"/>
</svg>
