<svg width="102" height="102" viewBox="0 0 102 102" fill="none" xmlns="http://www.w3.org/2000/svg">
<path d="M21.25 59.5C24.6123 59.5 27.8991 60.497 30.6947 62.365C33.4903 64.233 35.6693 66.888 36.956 69.9944C38.2426 73.1007 38.5793 76.5189 37.9234 79.8165C37.2674 83.1142 35.6483 86.1433 33.2708 88.5208C30.8933 90.8983 27.8642 92.5174 24.5665 93.1734C21.2689 93.8293 17.8507 93.4926 14.7444 92.206C11.638 90.9193 8.983 88.7403 7.11502 85.9447C5.24703 83.1491 4.25 79.8623 4.25 76.5L4.27125 75.65C4.48933 71.2939 6.37332 67.1883 9.53355 64.1823C12.6938 61.1763 16.8885 59.5 21.25 59.5ZM80.75 59.5C84.1123 59.5 87.3991 60.497 90.1947 62.365C92.9903 64.233 95.1693 66.888 96.456 69.9944C97.7427 73.1007 98.0793 76.5189 97.4234 79.8165C96.7674 83.1142 95.1483 86.1433 92.7708 88.5208C90.3933 90.8983 87.3642 92.5174 84.0665 93.1734C80.7689 93.8293 77.3507 93.4926 74.2444 92.206C71.138 90.9193 68.483 88.7403 66.615 85.9447C64.747 83.1491 63.75 79.8623 63.75 76.5L63.7713 75.65C63.9893 71.2939 65.8733 67.1883 69.0336 64.1823C72.1938 61.1763 76.3885 59.5 80.75 59.5Z" fill="#E3A545"/>
<path d="M63.0362 31.6413L70.274 42.5H80.7502C81.7912 42.5001 82.7959 42.8823 83.5738 43.574C84.3517 44.2658 84.8487 45.2189 84.9705 46.2528L85.0002 46.75C85.0002 47.8772 84.5525 48.9582 83.7554 49.7552C82.9584 50.5522 81.8774 51 80.7502 51H68.0002C67.3007 51.0001 66.612 50.8275 65.9952 50.4976C65.3783 50.1677 64.8525 49.6906 64.4642 49.1088L58.5312 40.2135L44.6125 51.3485L54.005 60.741C54.6664 61.4032 55.0906 62.2652 55.212 63.1933L55.2502 63.75V80.75C55.2502 81.8772 54.8025 82.9582 54.0054 83.7552C53.2084 84.5522 52.1274 85 51.0002 85C49.8731 85 48.7921 84.5522 47.995 83.7552C47.198 82.9582 46.7502 81.8772 46.7502 80.75V65.5137L35.2455 54.0047C34.4572 53.2153 34.011 52.1476 34.003 51.0321C33.9951 49.9165 34.4261 48.8426 35.203 48.042L35.594 47.6807L56.844 30.6807C57.304 30.3125 57.8356 30.0439 58.405 29.8921C58.9744 29.7403 59.5691 29.7085 60.1514 29.7989C60.7337 29.8892 61.2909 30.0996 61.7875 30.4168C62.2841 30.734 62.7094 31.1509 63.0362 31.6413ZM72.2502 12.75C73.9314 12.75 75.5748 13.2485 76.9726 14.1825C78.3704 15.1165 79.4599 16.444 80.1032 17.9972C80.7466 19.5504 80.9149 21.2594 80.5869 22.9083C80.2589 24.5571 79.4494 26.0717 78.2606 27.2604C77.0719 28.4492 75.5573 29.2587 73.9085 29.5867C72.2597 29.9147 70.5506 29.7463 68.9974 29.103C67.4443 28.4596 66.1167 27.3702 65.1827 25.9723C64.2488 24.5745 63.7502 22.9311 63.7502 21.25L63.7715 20.6125C63.9323 18.4741 64.8955 16.4755 66.4679 15.0174C68.0403 13.5592 70.1058 12.7493 72.2502 12.75Z" fill="#E3A545"/>
</svg>
