<svg width="104" height="104" viewBox="0 0 104 104" fill="none" xmlns="http://www.w3.org/2000/svg">
<path d="M63.1428 23.2142C63.1428 23.953 62.8493 24.6616 62.3269 25.184C61.8044 25.7064 61.0959 25.9999 60.3571 25.9999C59.6183 25.9999 58.9097 25.7064 58.3873 25.184C57.8649 24.6616 57.5714 23.953 57.5714 23.2142V7.42847H25.0714C24.3325 7.42847 23.624 7.72196 23.1016 8.24438C22.5791 8.76681 22.2856 9.47536 22.2856 10.2142V48.2856H81.7142V10.2142C81.7142 9.47536 81.4207 8.76681 80.8983 8.24438C80.3759 7.72196 79.6673 7.42847 78.9285 7.42847H74.2856V30.6428C74.2856 31.3816 73.9922 32.0901 73.4697 32.6125C72.9473 33.135 72.2387 33.4285 71.4999 33.4285C70.7611 33.4285 70.0526 33.135 69.5301 32.6125C69.0077 32.0901 68.7142 31.3816 68.7142 30.6428V7.42847H63.1428V23.2142ZM22.2856 53.857V60.357C22.2856 63.066 23.3618 65.6641 25.2773 67.5796C26.2258 68.5281 27.3518 69.2805 28.5911 69.7938C29.8303 70.3071 31.1586 70.5713 32.4999 70.5713H42.7142V87.2856C42.7142 89.7483 43.6925 92.1102 45.4339 93.8516C47.1753 95.593 49.5372 96.5713 51.9999 96.5713C54.4627 96.5713 56.8245 95.593 58.5659 93.8516C60.3073 92.1102 61.2856 89.7483 61.2856 87.2856V70.5713H71.4999C74.2089 70.5713 76.807 69.4952 78.7225 67.5796C80.6381 65.6641 81.7142 63.066 81.7142 60.357V53.857H22.2856Z" fill="#6788CF"/>
</svg>
