<svg width="100" height="100" viewBox="0 0 100 100" fill="none" xmlns="http://www.w3.org/2000/svg">
<path d="M87.5 66.6667V42.0833L53.9584 60.3125C52.7084 61.0069 51.3889 61.3542 50 61.3542C48.6111 61.3542 47.2917 61.0069 46.0417 60.3125L10.8334 41.1458C10.0695 40.7292 9.53059 40.2083 9.2167 39.5833C8.90281 38.9583 8.74726 38.2639 8.75004 37.5C8.75281 36.7361 8.90976 36.0417 9.22087 35.4167C9.53198 34.7917 10.0695 34.2708 10.8334 33.8542L46.0417 14.6875C46.6667 14.3403 47.3098 14.0791 47.9709 13.9041C48.632 13.7291 49.3084 13.643 50 13.6458C50.6917 13.6486 51.3695 13.7361 52.0334 13.9083C52.6973 14.0805 53.3389 14.3403 53.9584 14.6875L93.6459 36.3542C94.3403 36.7014 94.8792 37.2055 95.2625 37.8667C95.6459 38.5278 95.8361 39.2389 95.8334 40V66.6667C95.8334 67.8472 95.4334 68.8375 94.6334 69.6375C93.8334 70.4375 92.8445 70.8361 91.6667 70.8333C90.4889 70.8305 89.5 70.4305 88.7 69.6333C87.9 68.8361 87.5 67.8472 87.5 66.6667ZM46.0417 85.3125L25.2084 74.0625C23.8195 73.2986 22.7431 72.2569 21.9792 70.9375C21.2153 69.618 20.8334 68.1944 20.8334 66.6667V50.8333L46.0417 64.4792C47.2917 65.1736 48.6111 65.5208 50 65.5208C51.3889 65.5208 52.7084 65.1736 53.9584 64.4792L79.1667 50.8333V66.6667C79.1667 68.1944 78.7848 69.618 78.0209 70.9375C77.257 72.2569 76.1806 73.2986 74.7917 74.0625L53.9584 85.3125C53.3334 85.6597 52.6917 85.9208 52.0334 86.0958C51.375 86.2708 50.6973 86.3569 50 86.3542C49.3028 86.3514 48.625 86.2653 47.9667 86.0958C47.3084 85.9264 46.6667 85.6653 46.0417 85.3125Z" fill="#EF97B9"/>
</svg>
