<svg width="632" height="422" viewBox="0 0 632 422" fill="none" xmlns="http://www.w3.org/2000/svg">
<path d="M24.75 53.33H50.22V27.14H67.86V95H50.22V67.01H24.75V95H7.11V27.14H24.75V53.33ZM99.5407 48.83V95H83.2507V48.83H99.5407ZM82.1707 31.1C82.1707 29.84 82.4107 28.67 82.8907 27.59C83.3707 26.45 84.0307 25.46 84.8707 24.62C85.7107 23.78 86.6707 23.12 87.7507 22.64C88.8907 22.16 90.0907 21.92 91.3507 21.92C92.6107 21.92 93.7807 22.16 94.8607 22.64C96.0007 23.12 96.9907 23.78 97.8307 24.62C98.6707 25.46 99.3307 26.45 99.8107 27.59C100.291 28.67 100.531 29.84 100.531 31.1C100.531 32.36 100.291 33.56 99.8107 34.7C99.3307 35.78 98.6707 36.74 97.8307 37.58C96.9907 38.42 96.0007 39.08 94.8607 39.56C93.7807 40.04 92.6107 40.28 91.3507 40.28C90.0907 40.28 88.8907 40.04 87.7507 39.56C86.6707 39.08 85.7107 38.42 84.8707 37.58C84.0307 36.74 83.3707 35.78 82.8907 34.7C82.4107 33.56 82.1707 32.36 82.1707 31.1ZM130.991 88.7L108.671 48.83H127.571L139.901 72.5L151.871 48.83H170.591L133.511 118.04H115.241L130.991 88.7ZM191.661 71.78C191.661 73.28 191.931 74.69 192.471 76.01C193.011 77.27 193.731 78.38 194.631 79.34C195.591 80.3 196.701 81.05 197.961 81.59C199.281 82.13 200.691 82.4 202.191 82.4C203.631 82.4 204.981 82.13 206.241 81.59C207.561 81.05 208.671 80.3 209.571 79.34C210.531 78.38 211.281 77.27 211.821 76.01C212.421 74.75 212.721 73.4 212.721 71.96C212.721 70.52 212.421 69.17 211.821 67.91C211.281 66.59 210.531 65.45 209.571 64.49C208.671 63.53 207.561 62.78 206.241 62.24C204.981 61.7 203.631 61.43 202.191 61.43C200.691 61.43 199.281 61.7 197.961 62.24C196.701 62.78 195.591 63.53 194.631 64.49C193.731 65.45 193.011 66.56 192.471 67.82C191.931 69.02 191.661 70.34 191.661 71.78ZM212.181 48.83H228.561V95H212.181V89.87C208.701 94.25 203.991 96.44 198.051 96.44C194.691 96.44 191.601 95.84 188.781 94.64C185.961 93.38 183.501 91.64 181.401 89.42C179.301 87.2 177.651 84.59 176.451 81.59C175.311 78.59 174.741 75.32 174.741 71.78C174.741 68.48 175.311 65.36 176.451 62.42C177.591 59.42 179.181 56.81 181.221 54.59C183.261 52.37 185.691 50.63 188.511 49.37C191.331 48.05 194.451 47.39 197.871 47.39C203.631 47.39 208.401 49.4 212.181 53.42V48.83ZM247.387 77.81H262.687L246.127 107.6H235.687L247.387 77.81ZM328.089 27.14V95H310.449V27.14H328.089ZM352.885 27.14H368.275L351.715 57.02H341.275L352.885 27.14ZM381.291 48.83H397.581V54.5C402.021 50.24 407.001 48.11 412.521 48.11C419.361 48.11 424.581 50.99 428.181 56.75C431.841 50.93 437.061 48.02 443.841 48.02C446.001 48.02 448.041 48.35 449.961 49.01C451.881 49.61 453.531 50.6 454.911 51.98C456.291 53.3 457.371 55.04 458.151 57.2C458.991 59.36 459.411 61.97 459.411 65.03V95H443.121V72.23C443.121 69.89 442.941 67.97 442.581 66.47C442.281 64.97 441.801 63.8 441.141 62.96C440.541 62.12 439.821 61.55 438.981 61.25C438.141 60.95 437.241 60.8 436.281 60.8C431.061 60.8 428.451 64.61 428.451 72.23V95H412.161V72.23C412.161 69.89 412.011 67.97 411.711 66.47C411.411 64.91 410.961 63.68 410.361 62.78C409.821 61.88 409.101 61.28 408.201 60.98C407.301 60.62 406.251 60.44 405.051 60.44C404.031 60.44 403.071 60.59 402.171 60.89C401.271 61.19 400.461 61.79 399.741 62.69C399.081 63.53 398.541 64.73 398.121 66.29C397.761 67.79 397.581 69.77 397.581 72.23V95H381.291V48.83Z" fill="black"/>
<path d="M627.826 357.655C624.656 356.601 621.75 356.601 618.58 355.283C616.203 354.228 614.089 352.647 611.447 351.592C603.786 348.693 597.975 348.693 590.049 349.484C584.502 350.011 577.897 351.329 572.349 349.22C569.443 348.166 568.123 346.057 565.745 344.475C562.575 342.367 559.141 341.312 555.442 340.785C542.497 339.467 528.496 346.848 516.872 351.856C510.004 354.755 477.774 367.144 474.34 366.881C464.037 365.563 487.02 341.576 490.455 338.676C492.436 336.884 503.003 327.606 511.351 320.225C511.219 320.515 511.51 320.41 514.31 318.09C515.71 316.904 517.718 315.191 520.624 312.713C522.077 311.5 523.873 310.077 525.432 307.942C526.515 306.519 527.334 304.489 527.413 302.275C527.413 303.698 527.096 305.095 526.488 306.308C525.432 308.416 523.873 310.077 522.288 311.474C519.144 314.242 516.159 316.851 513.306 319.382C507.573 324.443 502.29 329.108 497.006 333.774C494.391 336.12 491.643 338.413 489.107 340.864C486.571 343.395 484.088 346.083 481.605 348.983C479.201 351.83 476.585 355.124 474.604 358.419C473.706 360.027 472.702 361.741 472.623 363.717C472.57 364.693 473.23 365.721 474.261 365.932C475.238 366.301 476.295 365.853 477.299 365.668C477.536 365.563 477.352 365.615 476.823 365.721C476.295 365.721 475.37 366.274 474.208 365.773C473.627 365.589 473.045 365.088 472.887 364.324C472.702 363.586 472.887 362.742 473.125 361.899C473.732 360.159 474.63 358.551 476.031 356.495C478.884 352.304 482.741 347.718 487.1 343.105C489.239 340.759 491.643 338.65 494.153 336.462C496.636 334.274 499.12 332.06 501.576 329.899C506.49 325.55 511.272 321.306 515.551 317.537C517.691 315.665 519.699 313.899 521.522 312.291C523.397 310.736 525.009 309.049 526.066 307.362C527.122 305.675 527.571 303.935 527.624 302.617C527.704 301.299 527.492 300.403 527.439 299.981C527.334 299.586 527.413 299.612 527.545 300.192C527.651 300.772 527.968 301.958 527.677 303.777C527.228 306.308 525.749 308.443 524.111 310.156C522.42 311.922 520.597 313.293 518.88 314.848C515.393 317.932 511.879 321.042 508.313 324.179C504.773 327.316 501.18 330.479 497.587 333.668C493.995 336.91 490.27 339.915 487.047 343.447C483.745 346.953 480.574 350.591 477.748 354.439C477.034 355.388 476.374 356.39 475.714 357.365C475.159 358.261 474.657 359.052 474.234 359.948C473.812 360.818 473.415 361.741 473.257 362.689C473.098 363.612 473.283 364.798 474.261 365.194C475.159 365.668 476.163 365.457 477.114 365.194C478.065 364.956 478.963 364.693 479.94 364.376L483.111 363.348L486.492 362.189C490.983 360.607 495.448 358.973 499.833 357.312C498.274 357.866 495.21 358.946 491.036 360.396C488.949 361.108 486.571 361.925 483.956 362.821C481.129 363.744 478.963 364.482 476.638 365.009C475.555 365.378 473.891 365.035 473.6 363.691C473.362 362.426 473.944 361.134 474.498 359.974C475.502 357.892 477.801 354.676 480.046 351.882C482.344 349.036 484.828 346.241 487.417 343.526C488.711 342.182 490.032 340.812 491.406 339.625C492.832 338.36 494.259 337.121 495.659 335.856C501.339 330.874 506.886 325.971 511.985 321.464C514.548 319.224 517.004 317.062 519.276 315.032C521.495 313.003 523.899 311.263 525.643 308.97C527.413 306.756 528.417 303.962 528.205 301.563C528.1 299.138 527.228 297.425 526.62 296.107C525.194 293.471 524.137 292.601 524.771 293.128C525.669 294.183 526.673 295.632 527.413 297.425C528.126 299.164 528.787 301.589 528.205 304.12C527.677 306.677 526.118 308.996 524.243 310.868C522.314 312.766 520.307 314.321 518.272 316.166C510.03 323.388 500.414 331.823 491.089 339.994C486.703 344.106 482.609 348.693 479.148 353.095C477.484 355.23 475.714 357.787 474.921 359.263C474.472 360.106 474.049 360.976 473.812 361.872C473.574 362.716 473.495 363.77 474.129 364.376C474.789 364.956 475.687 365.062 476.453 364.877C477.246 364.719 477.959 364.508 478.672 364.297L480.733 363.638L483.005 362.848C485.884 361.846 487.866 361.082 488.711 360.713C489.028 360.554 487.073 361.24 483.665 362.399L480.839 363.322C480.099 363.533 479.201 363.849 478.435 364.06C477.616 364.271 476.77 364.561 475.872 364.587C474.948 364.535 473.996 363.797 474.102 362.742C474.102 361.767 474.551 360.792 474.974 359.895C475.212 359.447 475.449 358.999 475.714 358.551L476.136 357.892L476.744 356.97C478.435 354.492 480.363 352.067 482.318 349.747C483.613 348.245 484.881 346.795 486.175 345.424C483.877 347.928 481.71 350.538 479.65 353.095C478.62 354.413 477.642 355.731 476.744 357.075L476.11 358.05L475.661 358.762C475.397 359.236 475.132 359.711 474.895 360.212C474.472 361.187 474.023 362.241 474.261 363.296C474.551 364.403 475.925 364.666 476.876 364.35C477.906 364.113 478.831 363.823 479.914 363.48C481.261 363.032 482.582 362.584 483.903 362.162C486.73 361.161 489.504 360.159 492.198 359.184C497.587 357.207 502.712 355.256 507.494 353.358C512.328 351.487 516.687 349.694 520.756 347.797C524.85 345.952 528.681 344.238 532.274 342.841C539.407 339.994 545.668 338.65 550.238 338.36C552.51 338.228 554.412 338.307 555.812 338.413L558.374 338.782C558.718 338.835 558.533 338.756 557.767 338.545C557.054 338.36 555.68 338.044 553.725 337.965C549.868 337.648 543.607 338.176 535.576 340.838C531.561 342.129 527.122 343.948 522.235 346.083C519.778 347.138 517.216 348.297 514.548 349.405C511.8 350.485 508.894 351.592 505.83 352.778C510.136 351.091 514.548 349.457 519.039 347.401C523.609 345.398 528.39 343.184 533.568 341.339C538.72 339.494 544.294 337.938 550.291 337.596C556.367 337.279 562.76 338.624 568.096 342.525C569.443 343.553 570.447 344.607 571.319 345.266C572.217 345.978 572.851 346.268 574.067 346.663C576.259 347.322 578.769 347.454 581.358 347.322C583.973 347.19 586.668 346.795 589.521 346.531C592.321 346.268 595.174 346.031 598.08 346.083C600.986 346.11 603.945 346.452 606.745 347.111C608.145 347.428 609.519 347.849 610.866 348.297C612.161 348.746 613.693 349.352 614.908 350.037C616.044 350.67 617.18 351.302 618.316 351.935C619.373 352.515 620.139 352.831 621.248 353.121C623.309 353.701 625.898 353.938 628.619 354.834L628.302 354.729C625.581 353.859 622.86 353.648 620.667 352.91C618.66 352.357 616.308 350.512 613.059 349.062C609.836 347.744 606.666 346.874 603.126 346.373C599.665 345.899 596.125 345.925 592.77 346.162C586.034 346.61 579.667 348.034 574.885 346.795C574.701 346.742 574.516 346.69 574.331 346.61C574.701 346.716 575.044 346.795 575.414 346.874C579.958 347.797 585.32 346.716 590.974 346.241C596.548 345.688 602.756 345.688 608.515 347.401C609.968 347.797 611.315 348.271 612.795 348.851C614.301 349.484 615.621 350.222 616.81 350.907C617.973 351.566 619.135 352.251 620.033 352.568C621.064 352.963 622.226 353.227 623.52 353.49C621.882 353.121 620.377 352.726 619.082 352.04C617.603 351.276 615.912 350.09 613.772 349.036C611.5 348.008 609.519 347.401 607.3 346.821C605.107 346.268 602.862 345.899 600.616 345.741C596.099 345.424 591.793 345.82 587.566 346.268C584.66 346.584 581.886 346.9 579.297 346.9C580.856 346.9 582.494 346.795 584.184 346.637C587.724 346.241 591.502 345.767 595.359 345.635C598.186 345.53 601.118 345.635 604.024 346.11C602.069 345.767 600.061 345.53 598.001 345.477C594.831 345.398 591.661 345.609 588.464 345.899C585.268 346.189 582.177 346.584 579.271 346.531C577.818 346.505 576.418 346.373 575.15 346.057C574.542 345.899 573.855 345.688 573.327 345.451C572.851 345.24 572.455 345.029 571.98 344.634C571.081 344.001 569.919 342.683 568.175 341.418C566.511 340.232 564.847 339.362 563.05 338.624C561.28 337.912 559.458 337.385 557.688 337.042C555.918 336.647 553.883 336.515 552.113 336.515C544.849 336.489 538.218 338.386 532.142 340.601C526.066 342.815 520.386 345.451 515.05 347.718C509.713 349.879 504.165 351.935 498.935 353.859C493.678 355.783 488.579 357.629 483.692 359.263C482.477 359.658 481.261 360.054 480.073 360.449L479.333 360.66L478.937 360.765C478.672 360.844 478.25 360.923 478.17 360.581C478.17 360.264 478.329 360.027 478.461 359.79L479.333 358.472C479.888 357.655 480.469 356.864 481.076 356.073C483.454 352.963 485.937 350.143 488.236 347.638C489.662 346.11 491.115 344.581 492.568 343.184C492.938 342.841 493.228 342.578 493.598 342.235L494.814 341.154L497.244 338.993L506.992 330.373L516.767 321.754L521.654 317.457L524.111 315.322C524.983 314.584 525.96 313.715 526.858 312.713C528.655 310.789 530.583 308.153 531.243 304.7C531.983 301.247 531.032 297.741 529.843 295.316C528.602 292.627 526.753 290.334 524.507 288.489C522.288 286.644 519.567 285.22 516.423 284.641C514.838 284.324 513.2 284.298 511.51 284.562C510.638 284.667 509.792 284.931 508.947 285.22C508.207 285.51 507.468 285.827 506.86 286.196C504.271 287.593 502.422 289.253 500.652 290.835C498.908 292.416 497.35 294.024 495.897 295.448C495.131 296.186 494.549 296.713 493.73 297.398L491.326 299.375C488.051 301.985 484.564 304.489 481.024 307.125L470.536 315.059C463.588 320.41 456.851 325.84 449.956 330.874L440.235 337.833L440.922 337.095C442.242 335.724 443.141 334.881 444.197 334.327C444.858 333.879 445.545 333.484 446.126 332.93C446.416 332.667 446.733 332.377 446.945 332.113L447.526 331.401C448.266 330.479 448.794 329.609 449.322 328.739C450.326 327.026 451.119 325.312 451.779 323.494C452.44 321.675 453.021 319.83 453.311 317.589C453.47 316.456 453.523 315.296 453.311 313.583C453.127 312.818 452.942 312.028 452.625 311.316C452.36 310.683 452.149 310.288 451.885 309.761C449.798 305.886 446.232 302.459 441.608 301.009C440.499 300.667 439.257 300.403 438.148 300.298C437.038 300.192 435.981 300.14 434.766 300.219C432.362 300.377 429.985 301.168 428.056 302.196C426.128 303.224 424.569 304.383 423.195 305.411C421.795 306.492 420.765 307.283 419.418 308.232L411.307 313.952L407.239 316.798C405.813 317.826 404.994 318.459 403.646 319.197L399.34 321.569C398.548 322.018 397.729 322.518 396.91 323.098C396.091 323.625 395.193 324.39 394.664 324.785C389.935 328.423 384.388 331.718 378.761 334.828C373.107 337.886 367.19 341.207 361.589 344.106C355.91 347.006 350.098 349.615 344.207 351.698C342.754 352.225 341.169 352.726 339.848 353.147L339.002 353.411H338.923L338.606 353.517C338.606 353.517 338.659 353.306 338.712 353.253L340.587 351.513L341.697 350.433L342.516 349.484L344.127 347.612L347.377 343.869L353.849 336.357L379.633 306.413C381.535 304.12 383.912 301.695 386.158 298.795C387.294 297.346 388.403 295.738 389.354 293.893C390.332 292.074 391.151 289.912 391.441 287.514C391.785 285.141 391.547 282.532 390.754 280.291C389.988 277.998 389.064 276.311 387.69 274.466C386.369 272.674 384.652 271.013 382.539 269.748C380.425 268.483 377.889 267.692 375.353 267.613C372.79 267.507 370.307 268.087 368.194 269.036C366.08 269.959 364.152 271.435 362.963 272.331C360.216 274.44 357.653 276.627 355.143 278.815C352.66 280.977 350.23 283.112 347.799 285.141L345.607 286.907C345.607 286.907 345.554 286.96 345.527 286.96V286.907L345.448 286.828C344.999 286.196 344.603 285.589 344.048 285.01C342.067 282.637 339.451 280.555 336.466 279.263C330.39 276.627 323.971 277.286 318.687 278.973C315.993 279.817 313.483 281.082 311.475 281.978L305.082 284.931L292.296 290.809L279.51 296.713L273.117 299.665L266.512 302.38L240.121 313.24C239.804 313.609 251.111 309.181 233.675 316.456C178.621 339.019 134.398 357.128 79.3168 379.717C78.1016 380.35 76.7807 381.009 75.4862 381.668C70.1499 383.856 64.7871 386.043 59.3979 388.258C54.0879 390.472 48.778 392.554 43.468 394.162C40.7999 394.926 38.1317 395.638 35.4899 396.06L35.0408 396.139H34.6974C34.6974 396.139 34.4596 396.165 34.354 396.139C33.9577 396.192 34.2483 395.928 34.3804 395.744L34.5917 395.48L36.6787 392.58C50.6008 373.655 66.5571 355.757 83.755 338.676C115.43 307.204 149.931 278.552 185.912 252.324C203.955 239.171 222.342 226.862 241.283 214.921C250.714 208.964 260.119 202.981 269.55 197.023C274.305 193.992 278.823 191.435 283.816 188.483L298.213 179.811C296.153 180.918 295.149 181.393 302.731 176.701C310.656 171.798 319.268 166.342 328.435 160.437C332.979 157.459 337.681 154.375 342.516 151.212C347.139 148.18 352.422 145.07 357.495 141.459C362.593 137.821 367.745 133.894 372.289 128.358C373.398 126.961 374.481 125.432 375.406 123.666C376.33 121.927 377.097 119.923 377.414 117.63C377.731 115.363 377.572 112.78 376.647 110.54C375.749 108.326 374.428 106.349 372.949 104.925C371.47 103.396 369.885 102.263 368.458 101.261C366.952 100.233 365.393 99.3108 363.782 98.4673C360.559 96.7803 357.178 95.4887 353.743 94.4871C346.822 92.5365 339.689 91.8248 332.583 92.0357C328.277 92.2202 324.446 92.6947 320.457 93.09C316.521 93.5118 312.585 94.0126 308.728 94.5398C302.678 95.436 301.146 95.805 300.195 96.0159C288.201 97.7819 276.974 99.6798 266.301 101.314C255.681 102.896 245.22 104.477 235.445 106.48C211.247 111.41 187.523 118.052 163.933 124.905C140.289 131.785 116.751 139.192 93.2917 147.179C81.5623 151.106 69.8593 155.376 58.1298 159.462C52.2651 161.518 46.4004 163.574 40.5357 165.63L36.1239 167.185L31.8443 168.529L27.591 169.874C26.2966 170.216 24.9493 170.454 23.5756 170.612C20.8281 170.928 17.8958 170.875 14.7521 170.823C13.1406 170.875 11.8461 170.612 9.17794 171.06C6.82677 171.561 4.60769 172.879 3.04905 174.671C1.4904 176.463 0.512952 178.651 0.169522 180.865C-0.200325 182.974 0.0110162 185.557 1.0413 187.692C2.01876 189.854 3.49815 191.488 5.03037 192.727C6.56259 193.992 8.14765 194.941 9.75913 195.732C10.5517 196.127 11.3442 196.47 12.216 196.839C13.1142 197.155 14.0124 197.419 14.937 197.709C15.8352 197.893 16.7334 198.104 17.6316 198.262C18.5298 198.368 19.428 198.473 20.3262 198.526C23.919 198.71 27.4325 198.289 30.7347 197.577C37.3656 196.127 43.3624 193.57 49.1743 191.356C60.9037 186.717 72.686 182.052 84.5211 177.36C96.2505 172.615 108.112 168.292 120.211 164.259C132.284 160.226 144.516 156.431 156.826 152.635C169.11 148.866 181.5 145.228 193.996 141.854C218.987 135.08 244.48 129.255 270.475 124.932C283.472 122.77 296.576 120.978 309.811 119.66C316.468 119.001 323.125 118.21 329.624 118.026C331.262 117.973 332.873 117.973 334.485 118.026L335.7 118.078H336.413L337.549 118.21C338.315 118.289 339.082 118.421 339.821 118.579C340.191 118.685 340.587 118.764 340.957 118.869L341.512 119.054C341.512 119.054 341.776 119.106 341.697 119.159L341.486 119.344C340.112 120.477 338.817 121.531 337.232 122.718C334.141 125.063 330.918 127.33 327.669 129.571C321.118 134.052 314.328 138.427 307.354 142.777C293.353 151.422 278.981 160.569 264.372 169.768C257.055 174.381 249.684 179.047 242.234 183.739C238.51 186.084 234.785 188.457 231.033 190.803C227.308 193.201 223.451 195.442 219.832 198.078C212.488 203.191 205.118 208.331 197.694 213.498C190.271 218.638 182.848 223.83 175.53 229.181C163.219 238.117 150.882 247.105 139.074 256.753C133.156 261.629 127.45 266.479 121.532 271.198C115.641 275.942 109.724 280.66 103.938 285.537C81.351 305.675 59.6092 326.261 40.1658 348.35C33.0067 356.521 25.4776 364.851 18.2392 373.892C14.6464 378.426 11.0536 383.065 7.85706 388.099C6.24558 390.63 4.73978 393.319 3.7359 396.35C2.73203 399.355 2.36219 402.676 2.86412 405.865C3.31322 409.028 4.39635 412.112 6.24558 414.88C8.0684 417.621 10.8423 419.915 14.0916 420.916C15.7295 421.444 17.4202 421.602 18.9261 421.707C20.4583 421.865 22.0169 421.918 23.5756 421.971C26.6928 422.05 29.7837 421.971 32.901 421.707C45.3437 420.679 57.4166 416.883 68.8554 412.271C113.924 392.58 158.755 373.022 197.589 356.073C195 356.943 201.234 353.833 212.594 349.115C218.274 346.716 225.195 343.79 232.856 340.548C240.121 337.358 247.571 332.798 256.13 330.637C248.126 340.126 237.981 348.192 229.897 357.049C228.92 358.05 227.942 359.078 227.018 360.106C223.584 363.797 220.466 367.724 218.538 372.31C214.839 380.745 214.575 391.816 220.123 399.724C224.878 406.05 235.709 406.841 242.578 404.205C251.296 401.042 258.164 394.188 265.297 388.653C273.222 382.59 280.355 375.474 288.016 369.147C289.865 367.566 294.621 361.767 296.998 361.767C299.64 361.767 298.319 364.93 298.319 366.775C298.319 369.147 298.583 371.52 299.64 373.892C301.225 377.319 303.867 380.482 307.037 382.854C310.471 385.49 314.962 385.49 319.189 385.226C330.02 384.436 341.116 380.745 351.154 376.791C356.702 374.683 362.25 372.574 367.798 369.938C372.289 367.829 376.78 364.403 381.799 363.348C378.893 373.365 378.365 382.59 386.29 390.498C394.215 398.406 405.839 394.188 414.028 388.389C424.067 381.536 434.106 374.156 443.88 367.039C445.201 366.248 448.636 362.821 450.221 362.821C452.598 362.821 452.07 365.194 452.334 367.566C453.391 372.838 456.297 379.164 459.995 382.854C468.185 390.762 484.564 385.754 493.81 382.59C505.433 378.9 517.057 374.156 528.417 369.675C533.7 367.566 538.984 364.666 544.532 363.085C550.872 361.24 553.514 363.085 558.005 367.039C566.194 374.419 578.082 372.31 588.121 371.52C594.725 370.993 599.744 370.202 605.821 373.365C611.104 376.001 616.652 377.582 622.464 376.528C627.747 375.474 630.389 372.574 631.181 367.302C632.502 363.612 632.767 359.658 627.747 357.813L627.826 357.655ZM567.277 341.76C568.228 342.393 569.153 343.105 569.866 343.764C570.289 344.159 570.659 344.449 571.002 344.765C570.447 344.291 569.84 343.737 569.126 343.131C568.519 342.604 567.885 342.156 567.277 341.734V341.76ZM570.527 343.895L570.896 344.212C570.896 344.212 570.659 344.001 570.527 343.895ZM571.53 345.187C571.821 345.398 572.085 345.609 572.349 345.767C572.244 345.714 572.138 345.662 572.032 345.609C571.874 345.503 571.689 345.345 571.53 345.213V345.187ZM571.53 344.739C571.662 344.844 571.821 344.976 571.953 345.055C571.9 345.029 571.874 345.003 571.847 344.976C571.742 344.897 571.636 344.792 571.557 344.713L571.53 344.739ZM573.327 346.268C573.327 346.268 573.248 346.215 573.195 346.189C573.353 346.268 573.538 346.321 573.723 346.373C573.591 346.321 573.459 346.294 573.327 346.241V346.268ZM577.739 346.821C578.241 346.848 578.716 346.9 579.244 346.927C578.742 346.927 578.241 346.874 577.739 346.821ZM576.655 346.716C576.497 346.716 576.312 346.716 576.153 346.663C575.652 346.558 575.202 346.452 574.727 346.347C575.335 346.505 575.995 346.637 576.655 346.716ZM574.701 346.347C574.357 346.268 574.014 346.162 573.697 346.031C573.565 345.978 573.485 345.925 573.38 345.899C573.75 346.057 574.172 346.189 574.701 346.347ZM572.429 345.398C572.429 345.398 572.693 345.582 572.825 345.635C572.693 345.556 572.561 345.477 572.429 345.398ZM569.443 342.947C569.126 342.683 568.783 342.419 568.413 342.156C568.651 342.34 568.915 342.525 569.153 342.709L569.443 342.947ZM567.964 341.787C567.462 341.444 566.934 341.101 566.458 340.812C566.934 341.101 567.462 341.418 567.964 341.787ZM567.277 341.734C566.775 341.391 566.247 341.101 565.745 340.838C565.824 340.891 565.93 340.917 566.009 340.97C566.405 341.181 566.854 341.47 567.277 341.734ZM486.571 345.161C487.152 344.528 487.76 343.869 488.341 343.289C490.27 341.233 492.119 339.625 493.942 338.044C491.326 340.284 488.87 342.683 486.598 345.161H486.571ZM273.988 349.615C271.373 352.304 268.573 353.622 265.825 356.126V356.548C263.527 358.235 261.07 360.027 258.613 361.846L257.662 362.637C259.591 360.66 261.546 358.657 263.553 356.627C266.671 353.464 269.682 350.301 272.958 347.217C275.626 344.475 278.347 341.813 281.174 339.441C285.322 336.014 291.318 332.35 295.783 329.424C294.99 329.082 298.187 326.393 300.512 324.284C302.255 323.177 303.999 322.044 305.742 320.963C295.149 330.294 284.556 339.625 274.015 348.904C274.147 349.088 274.834 348.746 274.015 349.589L273.988 349.615ZM313.879 316.008L314.011 315.929C313.668 316.219 313.324 316.509 313.06 316.719L313.853 316.008H313.879ZM307.935 325.629C307.803 325.418 307.618 325.233 306.192 326.261C307.962 324.68 308.833 323.889 310.63 322.308C310.603 321.859 305.32 327.342 306.165 325.84C307.935 324.39 309.705 322.518 311.475 320.937C310.55 321.148 305.267 326.34 305.214 325.761C306.086 324.812 310.577 321.728 310.524 321.016C310.524 320.858 308.754 322.466 307.856 323.256C313.166 318.222 315.755 315.112 310.392 319.144C311.528 318.143 313.007 316.93 314.407 315.718C319.163 312.95 322.993 311 324.578 310.762C322.729 312.344 320.616 314.189 318.502 316.034C316.944 317.484 312.637 321.385 307.935 325.655V325.629ZM527.413 301.299C527.413 301.115 527.387 300.93 527.36 300.746C527.36 300.93 527.413 301.115 527.413 301.299Z" fill="url(#paint0_linear_970_2039)"/>
<defs>
<linearGradient id="paint0_linear_970_2039" x1="700.138" y1="381.491" x2="-46.4663" y2="180.133" gradientUnits="userSpaceOnUse">
<stop stop-color="#85EFFF"/>
<stop offset="0.423077" stop-color="#F580F7"/>
<stop offset="0.706731" stop-color="#5B3CE6"/>
<stop offset="1" stop-color="#FF2424"/>
</linearGradient>
</defs>
</svg>
