<svg width="109" height="109" viewBox="0 0 109 109" fill="none" xmlns="http://www.w3.org/2000/svg">
<path d="M81.7498 84.0209C79.943 84.0209 78.2103 83.3032 76.9327 82.0256C75.6551 80.748 74.9373 79.0152 74.9373 77.2084C74.9373 75.4016 75.6551 73.6688 76.9327 72.3913C78.2103 71.1137 79.943 70.3959 81.7498 70.3959C83.5566 70.3959 85.2894 71.1137 86.567 72.3913C87.8446 73.6688 88.5623 75.4016 88.5623 77.2084C88.5623 79.0152 87.8446 80.748 86.567 82.0256C85.2894 83.3032 83.5566 84.0209 81.7498 84.0209ZM88.5623 43.1459L97.464 54.5001H77.2082V43.1459M27.2498 84.0209C25.443 84.0209 23.7103 83.3032 22.4327 82.0256C21.1551 80.748 20.4373 79.0152 20.4373 77.2084C20.4373 75.4016 21.1551 73.6688 22.4327 72.3913C23.7103 71.1137 25.443 70.3959 27.2498 70.3959C29.0566 70.3959 30.7894 71.1137 32.067 72.3913C33.3446 73.6688 34.0623 75.4016 34.0623 77.2084C34.0623 79.0152 33.3446 80.748 32.067 82.0256C30.7894 83.3032 29.0566 84.0209 27.2498 84.0209ZM90.8332 36.3334H77.2082V18.1667H13.6248C8.58359 18.1667 4.5415 22.2088 4.5415 27.2501V77.2084H13.6248C13.6248 80.822 15.0603 84.2876 17.6155 86.8428C20.1707 89.3979 23.6363 90.8334 27.2498 90.8334C30.8634 90.8334 34.329 89.3979 36.8842 86.8428C39.4394 84.2876 40.8748 80.822 40.8748 77.2084H68.1248C68.1248 80.822 69.5603 84.2876 72.1155 86.8428C74.6707 89.3979 78.1363 90.8334 81.7498 90.8334C85.3634 90.8334 88.829 89.3979 91.3842 86.8428C93.9393 84.2876 95.3748 80.822 95.3748 77.2084H104.458V54.5001L90.8332 36.3334Z" fill="#2840C6"/>
</svg>
