<svg xmlns="http://www.w3.org/2000/svg" viewBox="0 0 146.68 144.15"><defs><style>.cls-1{fill:#357f97;}.cls-2{fill:#7acbbb;}</style></defs><title>admin</title><g id="Layer_2" data-name="Layer 2"><g id="Layer_1-2" data-name="Layer 1"><path class="cls-1" d="M56.46,131.47c-.51-1.3-.87-2.19-1.19-3.09q-5.39-14.91-10.75-29.83c-.55-1.55-1.15-3-3.28-2.25-8.9,3.22-17.87,6.25-26.67,9.73A21.85,21.85,0,0,0,1.19,120c-1.78,5.5-1.06,11.15-1,16.77a4.49,4.49,0,0,0,.55,1.44c1.52,3.69,4.73,5,8.26,5.93h52.1l-3.91-13.68Z"/><path class="cls-2" d="M90.28,132c-2.63-4.4-7.07-12.08-9.78-16.42-1-1.68-1.07-2.83.54-4.18a14.44,14.44,0,0,0,5.12-9.08c.57-3.63-.59-6.28-3.83-8-6.21-3.21-12.4-3-18.47.39-2.71,1.49-3.79,4-3.42,7.12a13.72,13.72,0,0,0,5.14,9.51c1.55,1.23,1.59,2.36.61,4-2.81,4.62-5.48,9.32-8.23,14-.21.36-1.4,1.27-1.68,1.65l4.84,13.11c6.82,0,17.34-.11,24.16-.11Z"/><path class="cls-1" d="M146.61,126.8c-.33-8.72-4.38-15.21-12-19.46a43.27,43.27,0,0,0-6-2.78c-7.29-2.68-14.61-5.24-21.92-7.86-3-1.07-3.53-.85-4.6,2.11q-4.92,13.66-9.85,27.33c-.61,1.68-1.29,3.34-2.07,5.35.12,1.55.49,1.17.12.55h0l-5,12c18.68,0,33.65.11,52.32.11a5.73,5.73,0,0,1,1-.38c4.89-.94,7.73-4.07,7.95-9C146.69,132.14,146.71,129.47,146.61,126.8Z"/><ellipse class="cls-1" cx="73.31" cy="42.74" rx="39.82" ry="42.74"/></g></g></svg>