<?xml version="1.0" encoding="utf-8"?>
<!-- Generator: Adobe Illustrator 23.0.2, SVG Export Plug-In . SVG Version: 6.00 Build 0)  -->
<svg version="1.1" id="Layer_1" xmlns="http://www.w3.org/2000/svg" xmlns:xlink="http://www.w3.org/1999/xlink" x="0px" y="0px"
	 viewBox="0 0 75 75" style="enable-background:new 0 0 75 75;" xml:space="preserve">
<style type="text/css">
	.st0{fill:#97C8B9;}
</style>
<g>
	<path class="st0" d="M5.5,24.2c0.7-3,1.5-5.9,3.3-8.5c3-4.2,7-6.8,12-7.9c1.9-0.4,3.4,0.4,3.8,2c0.4,1.6-0.6,3-2.6,3.5
		c-6,1.4-9.9,5.6-10.8,11.7c-0.3,2-0.9,2.9-2.4,3.2c-1.7,0.3-2.6-0.7-3.3-1.9C5.5,25.5,5.5,24.9,5.5,24.2z"/>
	<path class="st0" d="M70.5,26.2c-0.7,1.2-1.6,2.2-3.2,2c-1.4-0.2-2.2-1.1-2.4-2.9c-0.4-4.1-2.2-7.4-5.6-9.7c-1.6-1-3.4-1.7-5.2-2.3
		c-1.9-0.6-3-1.9-2.6-3.5c0.4-1.6,1.9-2.4,3.8-2c7.9,1.6,13.8,7.7,15,15.7c0,0.2,0.2,0.4,0.2,0.7C70.5,24.9,70.5,25.5,70.5,26.2z"/>
	<path class="st0" d="M37.9,58.7c-5,0-10,0-15,0c-3.1,0-4.7-2.7-3.3-5.5c0.2-0.5,0.5-1,0.9-1.3c2.7-1.9,3-4.8,3.2-7.7
		c0.4-4.2,1.4-8.2,3.9-11.8c1.5-2.1,3.4-3.8,5.8-4.8c0.5-0.2,0.9-0.7,1.1-1.1c0.8-1.5,1.9-2.4,3.6-2.4c1.7,0,2.8,0.9,3.5,2.4
		c0.2,0.4,0.4,0.9,0.7,1c5.6,2.2,8,6.9,9.4,12.3c0.5,2.2,0.7,4.5,1,6.7c0.3,2,0.9,3.7,2.5,5c1.6,1.3,2.3,2.9,1.6,5
		c-0.6,1.7-1.2,2.2-3.1,2.2C48.4,58.8,43.1,58.7,37.9,58.7z"/>
	<path class="st0" d="M15.6,28.9c0.2-5.5,5-10.8,10.5-11.4c1.7-0.2,2.9,0.6,3.2,2.1c0.3,1.5-0.4,2.8-2.1,3.3
		c-3.6,0.9-5.7,3.1-6.1,6.9c-0.2,1.6-1.6,2.5-3.1,2.3C16.4,31.9,15.5,30.7,15.6,28.9z"/>
	<path class="st0" d="M60.4,29.1c0,1.7-0.9,2.9-2.4,3c-1.6,0.2-2.9-0.8-3.1-2.5c-0.5-3.6-2.4-5.7-5.9-6.6c-1.8-0.5-2.7-1.8-2.3-3.4
		c0.4-1.6,1.6-2.4,3.5-2C55.7,18.4,60.4,23.7,60.4,29.1z"/>
	<path class="st0" d="M38,62.3c1.1,0,2.2,0,3.3,0c1.3,0,1.7,0.6,1.5,1.9c-0.4,2.3-2.4,4-4.8,3.9c-2.4,0-4.4-1.7-4.8-4
		c-0.2-1.3,0.2-1.8,1.5-1.8C35.8,62.3,36.9,62.3,38,62.3z"/>
</g>
</svg>
