<svg xmlns="http://www.w3.org/2000/svg" viewBox="0 0 291.61 83.48"><defs><style>.cls-1{fill:#56a4db;}</style></defs><title>Logo Signature Sig</title><g id="Layer_2" data-name="Layer 2"><g id="Layer_16" data-name="Layer 16"><g id="Logo_Signature_Sig" data-name="Logo Signature Sig"><path class="cls-1" d="M290.34,24.44c-1.09-1.61-8.44-1.32-10.14-.7a34.25,34.25,0,0,0-6.52,3.33,52.94,52.94,0,0,0-6.85,5.07,39.18,39.18,0,0,0-7.73,10.07c-.55,1-1.08,1.95-1.53,3S257,47.3,256.33,48A5.21,5.21,0,0,1,254,49c-1.14.33-2.27.73-3.43,1s-1.42-.1-2.32-.46a4.58,4.58,0,0,0-3-.07c-.85.28-1.65.64-2.52.87-1.25.32-1.35-.1-1.69-1.24a8.45,8.45,0,0,0-.64-2.11,4.08,4.08,0,0,0-1.54-1.18c-1.92-1.15-3,.91-4.55,1.77a21.87,21.87,0,0,1-5.53,2c-2.07.49-4.18,1.07-6.31.68-.61-.11-1.63-.08-2-.67s0-1.8-.38-2.61c-1.08-2.32-3.32-1.66-5.18-.86-2.35,1-4.7,2.06-7,3.1-2.09.91-4.6,2.58-7,1.83,1-1.28,2-2.63,3.63-3s3-.58,4.3-1.83c2.39-2.24-1.8-5.54-4.15-4.73-1.52.52-2.57,1.82-3.79,2.75-.85.64-.71.23-.72-.65a5.84,5.84,0,0,0-.54-2.51c-1.39-2.79-5.85-3.86-8.6-4.39-7.14-1.36-14.88-.87-22,.19-3.81.56-18.77,3.45-22.47,4-4.2.68-8.34,1.83-12.48,2.75-2,.44-4,.79-5.95,1.12-1.76.29-4.46.94-6.13.08,3.38-2.78,7.53-4.56,11.31-6.73,3.6-2.07,7.55-3.79,11.33-5.52,4.12-1.88,38-16.45,46.32-19a27.19,27.19,0,0,1,3.07-.81,6.62,6.62,0,0,1,2.73.2c1.38.26,3.14-.15,3.61-1.71.54-1.79-1.56-3.48-3.14-3.46a20.67,20.67,0,0,0-6.16,1.17c-4.49,1.4-8.78,3.3-13.21,4.86-4.21,1.49-43.14,18.9-47.23,21-3.78,2-8.07,3.77-11.35,6.53-1.64,1.36-2.25,2.69-1.5,4.74a5.2,5.2,0,0,0,4.35,3.19c4.53.58,9.23-.82,13.6-1.87,8.76-2.09,17.63-4.06,26.53-5.4,4.68-.71,9.35-1.41,14.08-1.69,2.36-.14,4.77-.25,7.14-.2s10.57,1.48,12,2.79A23.81,23.81,0,0,1,190,47.4a67.25,67.25,0,0,1-8,4.49c-.85,0-1.71-.2-2.56-.27a40.1,40.1,0,0,0-6.39,0,61.07,61.07,0,0,0-11.86,2c-7.13,2-15.11,5.4-19.39,11.81-.87,1.31-.14,3,1,4,1.41,1.18,3.67,1,5.39,1,3.75-.11,7.63-1.39,11.15-2.6,3.33-1.15,6.49-2.56,9.7-4s6.37-3,9.46-4.71c1.08-.61,2.17-1.2,3.28-1.76a11.32,11.32,0,0,1,2.81-1.29c1.79-.32,3.71.69,5.33,0,.49-.21,1.58-.31,1.52-1.1s-1.21-.89-1.47-1.52-.33,0-.13-.41,1-.7,1.34-.9c.76-.46,5.57-3.87,6.35-4.46a15.53,15.53,0,0,0-1,4.91,4.41,4.41,0,0,0,1.35,2.51c1.62,1.55,4,1.47,6,.9a44.38,44.38,0,0,0,6.48-2.53c1.65-.77,4.33-2.68,6.21-1.42.78.54,1.24,1.55,2,2.13a6.34,6.34,0,0,0,3.07,1.05,18.29,18.29,0,0,0,6.7-.68c2.48-.68,4.92-1.53,7.41-2.18,1.17-.3,1.3.22,1.86,1.1a4.77,4.77,0,0,0,2,1.93c2.53,1.12,5-1,7.53-.55a10.35,10.35,0,0,0,3.84.2,24.67,24.67,0,0,1,3.65-.76A61.44,61.44,0,0,0,254,65.88a27.78,27.78,0,0,0,2.79,10.57c.29.64.73,1.2,1,1.85a2.86,2.86,0,0,0,.38.92c.17.19.59.35.8.56,1.17,1.08,2,2.32,3.48,3.1.91.49,3.17,1.19,3.66-.29.4-1.26-3.53-3.92-3.87-4,.19-.27-3-3.89-3.4-5a20,20,0,0,1-1.24-7.73,46.14,46.14,0,0,1,.68-8.46c.25-1.22.34-3.14.94-4.22.26-.46,9.38-4.1,11.11-4.85s3.34-1.4,5-2.16c1-.45,1.91-1,2.84-1.48.4-.22,3.9-2.27,4.83-2.78a16.17,16.17,0,0,0,2.75-2,24.11,24.11,0,0,0,4.43-4.76C291.93,32.43,292.2,27.17,290.34,24.44ZM175,56.35c-4.61,2.36-9.24,4.76-14.06,6.65-4.53,1.78-9.3,3.47-14.22,3.47,3.27-3.94,8.06-5.85,12.74-7.62a43.68,43.68,0,0,1,7.71-2.08c1.35-.24,2.71-.45,4.07-.63s3.2-.71,4.47-.28A5.61,5.61,0,0,1,175,56.35ZM288.13,28.57c-1.58,5.09-5.74,8.13-10.18,10.67-5.05,2.9-10.65,4.67-16,6.92.54-1.6,1.67-2.82,2.48-4.26a24.61,24.61,0,0,1,2.65-3.69,34.46,34.46,0,0,1,7.52-6.52,26.14,26.14,0,0,1,7.15-3.61,10.83,10.83,0,0,1,3.31-.42C285.88,27.67,288.56,27.19,288.13,28.57Z"/><path class="cls-1" d="M133.82,56.16a16.8,16.8,0,0,1-2-.52c-.52-.26-1-.58-1.53-.79a9.19,9.19,0,0,0-4.62-.44,8.9,8.9,0,0,1-3.81-.06,6.13,6.13,0,0,1-1.4-1,4.43,4.43,0,0,0-2.22-.78c-2.81-.28-5.78,1.32-8.3,2.37-1.46.61-8.38,3.3-9.13,3.21-2.19-.25,2.74-5.41,3.44-6.06s5.25-4.68,6.47-5.71c1-.81,1.69-1.68,1.14-3a2.85,2.85,0,0,0-3-1.8c-1.09.26-2.14,1.64-3,2.38-1.17,1-2.42,1.9-3.67,2.82C100,48.4,98.11,50,95.93,51.56q-2.21,1.59-4.42,3.17c-.58.4-4,3.14-4.43,2.8,1.45-2.29,3.57-4.16,5.42-6.14a5.65,5.65,0,0,1,1.41-1.26c.6-.32,1.64-2.63,1.29-3.48a2.69,2.69,0,0,0-2.31-1.75c-1.28-.09-2,.71-3,1.41S88,47.66,87,48.38s-1.69.88-2.47,1.5a45.15,45.15,0,0,1-6.11,3.67,32.51,32.51,0,0,1-7.26,3L69.76,57c-.58.15-.83.34-.69-.27.23-1,1.83-2.19,2.47-2.92.9-1,6.71-7.67,7.95-9.24,1.09-1.39,3.06-3,2.28-4.89s-2.35-2.3-3.84-1.19c-1.73,1.3-3.3,2.93-5.09,4.12-1-2.7-3.4-3.16-5.89-2-1.17.57-8.48,4-8.83,4.1-.63.23-40.52,16.71-43.95,18.12-2.92,1.21-6.66,3-9.89,2.69A103.2,103.2,0,0,1,21,46.65,208,208,0,0,1,46.41,27c2.08-1.37,10.79-6.89,11.84-7.51,4.78-2.8,9.5-5.79,14.13-8.86C74.47,9.24,82,5.09,78,2.06a11.74,11.74,0,0,0-7.92-2c-5,.38-10,1.36-14.9,2.09A148.59,148.59,0,0,0,35.36,6.71q-11,3.17-21.76,7c-2.17.78-4.34,1.56-6.52,2.29-.6.2-1.19.41-1.8.58a13.65,13.65,0,0,1-3.66.24A1.66,1.66,0,0,0,0,18.57c0,1.16,1.11,1.83,2.08,2.18,2.44.9,5.24-.38,7.5-1.25,2.6-1,5.18-2,7.76-3.06,5.23-2.09,10.63-3.77,16-5.4A167.05,167.05,0,0,1,66.17,4.18c2.46-.23,5.47-.6,7.84.23-4.15,3.44-9,6.2-13.54,9.09C56.1,16.27,51.68,19,47.32,21.76c-2.79,1.8-5.48,3.73-8.16,5.69-3.69,2.68-7.5,5.3-11,8.24-2.81,2.39-5.77,4.56-8.52,7-1.56,1.4-3.08,2.87-4.6,4.33-2.69,2.59-5.21,5.19-7.67,8a88.35,88.35,0,0,0-5.78,7C.65,63.53-.26,64.91.1,66.71a3.22,3.22,0,0,0,2.74,2.87c4.28.44,8.07-.76,11.93-2.37,5.33-2.21,10.55-4.58,15.8-7,3.91-1.78,7.88-3.41,11.81-5.15,2-.88,4-1.67,6-2.45s4-2,6-2.41C53,51.91,51.25,53.38,49.69,55a15.36,15.36,0,0,0-3.6,4.43,6.16,6.16,0,0,0,.35,5.9c1,1.38,3.34,1.52,4.8,1,1.86-.68,3.33-2.17,4.88-3.34,1.71-1.3,3.25-2.82,4.88-4.21.37-.32,1.44-1.61,1.94-1.59s.27.68.29,1.1a3.75,3.75,0,0,0,.3,1.52,5.53,5.53,0,0,0,1.57,1.93,3.66,3.66,0,0,0,2.61.51,24.59,24.59,0,0,0,6.88-1.79c1.2-.46,2.4-.93,3.57-1.48a16.57,16.57,0,0,1,3-1.42c-.65,2.17-.71,4.13,1,5.82s4.22.77,6-.42c2.18-1.48,4.28-3.06,6.42-4.6.28-.2,1-.92,1.34-.9.49,0,.38.52.48,1A6.77,6.77,0,0,0,98,61.71c1.78,1.72,5.27.62,7.27,0,2.52-.82,5-1.8,7.45-2.78,1.14-.46,2.27-1.07,3.46-1.42s1.9,0,2.87.85c1.77,1.57,4.31,1.11,6.47,1,1.41-.08,2.52-.26,3.78.41a5.3,5.3,0,0,0,3.57.67,2,2,0,0,0,1.86-2C134.85,57.39,134.88,56.52,133.82,56.16Zm-66.36-9-5.62,5.11c-1.3,1.18-2.58,2.4-3.92,3.54s-2.75,2.26-4.13,3.38c-1,.82-2.55,2.53-3.95,2.53,1.34-2.79,3.84-4.82,6.07-6.9q1.73-1.6,3.57-3.08c1.06-.84,8.1-5.57,9.28-5.72C68.33,46.4,67.88,46.77,67.46,47.16Z"/></g></g></g></svg>