<svg xmlns="http://www.w3.org/2000/svg" viewBox="0 0 141.69 156.26"><defs><style>.cls-1{fill:#357f97;}.cls-2{fill:#7acbbb;}.cls-3{fill:#fff;}</style></defs><title>doc</title><g id="Layer_2" data-name="Layer 2"><g id="Layer_1-2" data-name="Layer 1"><path class="cls-1" d="M95.13,27h0a67.5,67.5,0,0,0-47.8,0,1,1,0,0,1-.74,0A42.31,42.31,0,0,0,32.48,58.91c0,22.75,17.18,41.19,38.37,41.19s38.36-18.44,38.36-41.19A42.3,42.3,0,0,0,95.13,27Z"/><path class="cls-2" d="M71.21,3a85.07,85.07,0,0,1,30.15,5.52,1.13,1.13,0,0,1,.82,1.34q-2.9,7.32-5.8,14.63a.94.94,0,0,1-.9.6,1,1,0,0,1-.37-.07,67.54,67.54,0,0,0-47.8,0A1,1,0,0,1,46,24.49L40.24,9.86a1.13,1.13,0,0,1,.82-1.34A85.07,85.07,0,0,1,71.21,3"/><path class="cls-2" d="M71.21,0A87.63,87.63,0,0,0,40,5.72,4.4,4.4,0,0,0,37.52,8a3.8,3.8,0,0,0-.06,3l1.15,2.91L43.24,25.6a4,4,0,0,0,3.7,2.49,4.11,4.11,0,0,0,1.43-.26,64.49,64.49,0,0,1,45.68,0,4.11,4.11,0,0,0,1.43.26,3.94,3.94,0,0,0,3.69-2.48l4.14-10.46L105,11a3.82,3.82,0,0,0-.07-3,4.4,4.4,0,0,0-2.47-2.3A87.63,87.63,0,0,0,71.21,0Z"/><path class="cls-1" d="M132.42,122.39a134.12,134.12,0,0,0-21.52-9.53L71.15,133.52,30.52,112.69c-27.64,8.94-28,17.42-28,17.42C-1.34,135.25.38,147.25.38,147.25c0,8.58,9.86,9,9.86,9H129c13.72,0,12.43-9,12.43-9C143.56,129.25,132.42,122.39,132.42,122.39Z"/><path class="cls-2" d="M71.11,122.41,97,108.94c-15.45-3.46-25.91-2.84-25.91-2.84l-25.64,3.16Z"/><g id="Plus_Points" data-name="Plus Points"><path class="cls-3" d="M67.83,13.86h1.76v1.65a1.8,1.8,0,0,0,1.58,1.33,1.71,1.71,0,0,0,1.55-1.33V13.86h1.8a2,2,0,0,0,1.33-1.7,1.49,1.49,0,0,0-1.33-1.43h-1.8V8.82a1.7,1.7,0,0,0-1.55-1.33,1.79,1.79,0,0,0-1.58,1.33v1.91H67.83a1.49,1.49,0,0,0-1.33,1.43A2,2,0,0,0,67.83,13.86Z"/></g></g></g></svg>