<?xml version="1.0" encoding="utf-8"?>
<!-- Generator: Adobe Illustrator 23.0.2, SVG Export Plug-In . SVG Version: 6.00 Build 0)  -->
<svg version="1.1" id="Layer_1" xmlns="http://www.w3.org/2000/svg" xmlns:xlink="http://www.w3.org/1999/xlink" x="0px" y="0px"
	 viewBox="0 0 792 496" style="enable-background:new 0 0 792 496;" xml:space="preserve">
<style type="text/css">
	.st0{fill:#911A1D;}
	.st1{fill:url(#SVGID_1_);}
	.st2{fill:none;}
	.st3{fill:url(#SVGID_2_);}
	.st4{opacity:0.9;fill:#EAD728;}
	.st5{opacity:0.9;fill:#F3AF1C;}
</style>
<g>
	<path class="st0" d="M387.9,62.8V42.5c0-21.1-17.1-38.1-38.1-38.1H92.2c-44.8,0-79.3,39.4-73.3,83.8l0,0h258.9l-0.4,0.5h100.7
		l1.4-1.7C384.9,80.2,387.9,71.6,387.9,62.8z"/>
	<linearGradient id="SVGID_1_" gradientUnits="userSpaceOnUse" x1="0" y1="292.4546" x2="378.0559" y2="292.4546">
		<stop  offset="0" style="stop-color:#A71213"/>
		<stop  offset="4.060123e-02" style="stop-color:#B81719"/>
		<stop  offset="9.754580e-02" style="stop-color:#CB1A1E"/>
		<stop  offset="0.1619" style="stop-color:#D91D21"/>
		<stop  offset="0.2369" style="stop-color:#E31E22"/>
		<stop  offset="0.3325" style="stop-color:#EA1F24"/>
		<stop  offset="0.5181" style="stop-color:#ED2024"/>
		<stop  offset="0.6605" style="stop-color:#EA1F24"/>
		<stop  offset="0.7541" style="stop-color:#E21E22"/>
		<stop  offset="0.8336" style="stop-color:#D71C20"/>
		<stop  offset="0.9053" style="stop-color:#C71A1D"/>
		<stop  offset="0.9711" style="stop-color:#B21517"/>
		<stop  offset="1" style="stop-color:#A71213"/>
	</linearGradient>
	<path class="st1" d="M277.3,88.7L24.5,394.5C8.7,413.7,0,437.7,0,462.6c0,18.5,15,33.6,33.6,33.6l92.6-92.6L378.1,88.7H277.3z"/>
	<path class="st2" d="M570,85.4c1-0.2,2-0.3,3-0.5C572,85.1,570.9,85.2,570,85.4z"/>
	<path class="st2" d="M608,83.4c0.4,0,0.8,0,1.3,0.1C608.9,83.4,608.5,83.4,608,83.4z"/>
	<path d="M613.9,83.9c-1.5-0.2-3-0.3-4.6-0.4C610.8,83.5,612.3,83.7,613.9,83.9z"/>
	<path d="M608,83.4c-3.7-0.3-7.3-0.6-11.1-0.6c-8.2,0-16.1,0.8-23.9,2.1c7.5-1.2,15.8-1.9,25-1.9C601.3,83,604.7,83.2,608,83.4z"/>
	<linearGradient id="SVGID_2_" gradientUnits="userSpaceOnUse" x1="440.8205" y1="262.6097" x2="788.0753" y2="262.6097">
		<stop  offset="0" style="stop-color:#A71213"/>
		<stop  offset="4.060123e-02" style="stop-color:#B81719"/>
		<stop  offset="9.754580e-02" style="stop-color:#CB1A1E"/>
		<stop  offset="0.1619" style="stop-color:#D91D21"/>
		<stop  offset="0.2369" style="stop-color:#E31E22"/>
		<stop  offset="0.3325" style="stop-color:#EA1F24"/>
		<stop  offset="0.5181" style="stop-color:#ED2024"/>
		<stop  offset="0.5517" style="stop-color:#E31E22"/>
		<stop  offset="0.6787" style="stop-color:#C91A1D"/>
		<stop  offset="0.7993" style="stop-color:#B61618"/>
		<stop  offset="0.9095" style="stop-color:#AB1314"/>
		<stop  offset="1" style="stop-color:#A71213"/>
	</linearGradient>
	<path class="st3" d="M788.1,351.4c0-22.4-3.7-41.3-11-56.6c-7.3-15.3-17.7-28.5-31.2-39.5c-1.5-1.3-3.3-2.4-4.9-3.6
		c-12.6-9.4-27.3-17.4-44.5-23.8c-19.5-7.3-41.1-14.2-64.9-20.6c-18.3-4.6-34.4-8.9-48.4-13c-14-4.1-25.5-8.7-34.7-13.7
		c-9.2-5-16.1-10.9-20.9-17.5c-4.8-6.6-7.8-15-7.2-25.1c1.6-28.8,35.9-50.4,30.4-47.5c-43.9,13.7-64.8,41.3-81.1,64.7
		c-13,18.7-22.9,41.2-28.9,63.1c3,4.4,6.5,8.5,10.2,12.5c2,2.2,4,4.3,6.3,6.4c11.4,10.3,25.7,19.2,42.9,26.8
		c17.2,7.6,37.4,14.5,60.7,20.9c19.2,5.5,36.6,10.5,52.2,15.1c14.5,4.3,27,9,37.6,14.1c56,17.1,99.2,63.4,111.9,121.1
		c3.9-5.3,7.6-10.8,10.8-16.8C783.2,399.8,788.1,377.5,788.1,351.4z"/>
	<path class="st0" d="M650.6,314c0.7,0.4,1.5,0.7,2.2,1c11,5.5,19.4,11.9,25.4,19.2c2.7,3.4,4.8,7.1,6.3,11.2
		c1.7,4.7,2.7,9.9,2.7,15.5c0,33.4-26.1,50.1-78.2,50.1c-0.8,0-1.6-0.1-2.5-0.1v1.4H119.1l7-8.8l-92.6,92.6h572.9l0,0
		c0.4,0,0.7,0,1.1,0c23.8,0,46.5-2.6,68.3-7.9c21.7-5.3,40.9-13.6,57.6-25c11.3-7.7,20.9-17.2,29-28.2
		C749.8,377.3,706.6,331,650.6,314z"/>
	<path class="st0" d="M529.9,99.2c4.4-2.7,15.9-7.5,17.2-7.5c7.4-2.7,15-4.9,22.9-6.3c1-0.2,2-0.3,3-0.5c7.8-1.3,15.8-2.1,23.9-2.1
		c3.7,0,7.4,0.3,11.1,0.6c0.4,0,0.8,0,1.3,0.1c1.5,0.1,3.1,0.3,4.6,0.4c9.2,0.8,18.3,2.4,27.3,4.7c14.2,3.7,84.6,39.4,87.8,42.6
		l16.7-30.7c14.7-26.9,3.7-61-24.3-73.6c-8.3-3.8-17-7.3-26.1-10.7C666.6,5.4,635,0,600.7,0c-24.7,0-47.8,3.3-69.3,10
		c-21.5,6.6-40.4,16.4-56.6,29.2c-16.2,12.8-28.9,28.8-38.1,48c-9.2,19.2-13.7,41.2-13.7,65.9c0,18.8,2.9,34.9,8.6,48.4
		c2.5,5.9,5.7,11.5,9.3,16.8c6.1-21.9,16.3-42.8,29.3-61.5C484,132.2,504.8,112.2,529.9,99.2z"/>
</g>
<rect x="-59" y="896.5" transform="matrix(0.7071 0.7071 -0.7071 0.7071 752.6405 247.965)" class="st4" width="272" height="272"/>
<circle class="st5" cx="259.2" cy="1037.2" r="168.8"/>
</svg>
