<?xml version="1.0" encoding="utf-8"?>
<!-- Generator: Adobe Illustrator 23.0.2, SVG Export Plug-In . SVG Version: 6.00 Build 0)  -->
<svg version="1.1" id="Layer_1" xmlns="http://www.w3.org/2000/svg" xmlns:xlink="http://www.w3.org/1999/xlink" x="0px" y="0px"
	 viewBox="0 0 542 166" style="enable-background:new 0 0 542 166;" xml:space="preserve">
<g id="Logo_Signature_Sig_1_">
	<g>
		<path d="M532,55.1c-1.9-2.8-14.9-2.3-17.9-1.2c-4,1.5-7.9,3.6-11.5,5.9c-4.3,2.7-8.3,5.6-12.1,8.9c-5.6,5-9.9,11.3-13.6,17.8
			c-1,1.7-1.9,3.4-2.7,5.2c-0.7,1.5-1,3.8-2.2,5c-1,1.1-2.8,1.3-4.1,1.7c-2,0.6-4,1.3-6,1.8c-1.8,0.4-2.5-0.2-4.1-0.8
			c-1.6-0.6-3.7-0.7-5.3-0.1c-1.5,0.5-2.9,1.1-4.4,1.5c-2.2,0.6-2.4-0.2-3-2.2c-0.3-1.2-0.5-2.7-1.1-3.7c-0.6-1-1.8-1.5-2.7-2.1
			c-3.4-2-5.3,1.6-8,3.1c-3,1.7-6.4,2.8-9.7,3.6c-3.7,0.9-7.4,1.9-11.1,1.2c-1.1-0.2-2.9-0.2-3.5-1.2c-0.7-1.3,0-3.2-0.7-4.6
			c-1.9-4.1-5.9-2.9-9.1-1.5c-4.2,1.8-8.3,3.6-12.4,5.5c-3.7,1.6-8.1,4.6-12.3,3.2c1.7-2.3,3.5-4.6,6.4-5.3c3-0.7,5.2-1,7.6-3.2
			c4.2-3.9-3.2-9.8-7.3-8.3c-2.7,0.9-4.5,3.2-6.7,4.8c-1.5,1.1-1.3,0.4-1.3-1.1c0-1.4-0.3-3.1-0.9-4.4c-2.5-4.9-10.3-6.8-15.2-7.7
			c-12.6-2.4-26.2-1.5-38.8,0.3c-6.7,1-33.1,6.1-39.6,7.1c-7.4,1.2-14.7,3.2-22,4.8c-3.5,0.8-7,1.4-10.5,2
			c-3.1,0.5-7.9,1.7-10.8,0.1c6-4.9,13.3-8,20-11.9c6.3-3.7,13.3-6.7,20-9.7c7.3-3.3,66.9-29,81.7-33.6c1.8-0.6,3.6-1.1,5.4-1.4
			c1.8-0.3,3.1,0,4.8,0.4c2.4,0.5,5.5-0.3,6.4-3c1-3.2-2.7-6.1-5.5-6.1c-3.8,0-7.3,0.9-10.9,2.1c-7.9,2.5-15.5,5.8-23.3,8.6
			c-7.4,2.6-76.1,33.3-83.3,37.1c-6.7,3.5-14.2,6.7-20,11.5c-2.9,2.4-4,4.8-2.6,8.4c1.2,3.3,4.4,5.2,7.7,5.6c8,1,16.3-1.4,24-3.3
			c15.4-3.7,31.1-7.2,46.8-9.5c8.3-1.2,16.5-2.5,24.8-3c4.2-0.2,8.4-0.4,12.6-0.4c4,0.1,18.6,2.6,21.2,4.9c-2.7,3.3-6.2,5.6-9.8,8
			c-3.9,2.6-13.5,7.9-14.2,7.9c-1.5-0.1-3-0.3-4.5-0.5c-3.8-0.3-7.5-0.2-11.3,0.1c-7.1,0.6-14,1.7-20.9,3.6
			c-12.6,3.6-26.6,9.5-34.2,20.8c-1.5,2.3-0.2,5.3,1.8,7c2.5,2.1,6.5,1.8,9.5,1.8c6.6-0.2,13.5-2.4,19.7-4.6
			c5.9-2,11.4-4.5,17.1-7.1c5.7-2.6,11.2-5.2,16.7-8.3c1.9-1.1,3.8-2.1,5.8-3.1c1.5-0.8,3.3-2,5-2.3c3.2-0.6,6.5,1.2,9.4,0
			c0.9-0.4,2.8-0.6,2.7-1.9c-0.1-1.2-2.1-1.6-2.6-2.7c-0.4-0.9-0.6,0-0.2-0.7c0.3-0.7,1.7-1.2,2.3-1.6c1.3-0.8,9.8-6.8,11.2-7.9
			c-0.8,2-1.9,7.2-1.7,8.7c0.3,1.8,1,3.1,2.4,4.4c2.9,2.7,7,2.6,10.6,1.6c3.9-1.1,7.7-2.8,11.4-4.5c2.9-1.3,7.6-4.7,10.9-2.5
			c1.4,0.9,2.2,2.7,3.6,3.7c1.6,1.2,3.4,1.6,5.4,1.8c4,0.4,8-0.2,11.8-1.2c4.4-1.2,8.7-2.7,13.1-3.8c2.1-0.5,2.3,0.4,3.3,1.9
			c0.9,1.4,1.9,2.7,3.4,3.4c4.5,2,8.9-1.9,13.3-1c2.3,0.5,4.4,0.7,6.8,0.4c2.1-0.3,4.3-1.4,6.4-1.3c-1.1,6.6-1.4,13.7-1.2,20.4
			c0.2,6.7,2.2,12.6,4.9,18.6c0.5,1.1,1.3,2.1,1.7,3.3c0.2,0.6,0.3,1.2,0.7,1.6c0.3,0.3,1,0.6,1.4,1c2.1,1.9,3.6,4.1,6.1,5.5
			c1.6,0.9,5.6,2.1,6.5-0.5c0.7-2.2-6.2-6.9-6.8-7.1c0.3-0.5-5.2-6.9-6-8.8c-1.7-4.3-2.2-9.1-2.2-13.6c0.1-5,0.2-10,1.2-14.9
			c0.4-2.1,0.6-5.5,1.7-7.4c0.5-0.8,16.5-7.2,19.6-8.5c2.9-1.3,5.9-2.5,8.7-3.8c1.7-0.8,3.4-1.7,5-2.6c0.7-0.4,6.9-4,8.5-4.9
			c1.9-1,3.2-2.1,4.8-3.5c2.9-2.5,5.7-5.2,7.8-8.4C534.8,69.2,535.3,59.9,532,55.1z M328.6,111.4c-8.1,4.2-16.3,8.4-24.8,11.7
			c-8,3.1-16.4,6.1-25.1,6.1c5.8-6.9,14.2-10.3,22.5-13.4c4.4-1.7,9-2.8,13.6-3.7c2.4-0.4,4.8-0.8,7.2-1.1c2.3-0.3,5.6-1.2,7.9-0.5
			C329.5,110.8,329,111.1,328.6,111.4z M528.1,62.4c-2.8,9-10.1,14.3-18,18.8c-8.9,5.1-18.8,8.2-28.2,12.2c1-2.8,2.9-5,4.4-7.5
			c1.3-2.4,2.9-4.4,4.7-6.5c3.7-4.4,8.5-8.4,13.3-11.5c4.1-2.7,7.8-5,12.6-6.4c2-0.6,3.8-0.7,5.8-0.7
			C524.2,60.8,528.9,59.9,528.1,62.4z"/>
		<path d="M256,111c-1.2-0.4-2.3-0.4-3.5-0.9c-0.9-0.4-1.7-1-2.7-1.4c-2.9-1.1-5.1-1.1-8.1-0.8c-2.1,0.2-4.6,0.7-6.7-0.1
			c-1.1-0.4-1.6-1.2-2.5-1.8c-1.2-0.8-2.5-1.2-3.9-1.4c-4.9-0.5-10.2,2.3-14.6,4.2c-2.6,1.1-14.8,5.8-16.1,5.7
			c-3.9-0.5,4.8-9.6,6.1-10.7c1.1-1,9.3-8.2,11.4-10.1c1.7-1.4,3-3,2-5.3c-0.8-2-3.1-3.7-5.3-3.2c-1.9,0.5-3.8,2.9-5.3,4.2
			c-2.1,1.8-4.3,3.3-6.5,5c-3.9,2.9-7.2,5.7-11.1,8.5c-2.6,1.9-5.2,3.7-7.8,5.6c-1,0.7-7,5.5-7.8,4.9c2.6-4,6.3-7.3,9.6-10.8
			c0.8-0.8,1.5-1.7,2.5-2.2c1.1-0.6,2.9-4.6,2.3-6.1c-0.7-1.7-2.2-3-4.1-3.1c-2.3-0.2-3.6,1.3-5.3,2.5c-1.7,1.2-3.4,2.4-5.1,3.6
			c-1.4,1.1-3,1.6-4.3,2.7c-3.2,2.5-7.2,4.5-10.8,6.5c-4,2.2-8.3,4.2-12.8,5.3c-0.8,0.2-1.7,0.5-2.5,0.7c-1,0.3-1.5,0.6-1.2-0.5
			c0.4-1.7,3.2-3.9,4.4-5.1c1.6-1.8,11.8-13.5,14-16.3c1.9-2.4,5.4-5.2,4-8.6c-1.3-3.1-4.2-4.1-6.8-2.1c-3.1,2.3-5.8,5.2-9,7.3
			c-1.8-4.8-6-5.6-10.4-3.5c-2.1,1-15,7-15.6,7.2c-1.1,0.4-71.5,29.5-77.5,32c-5.2,2.1-11.8,5.4-17.4,4.7
			c8.2-12.3,18.6-23.3,29.5-33.3C71.1,81.5,86,70,101.8,59.6c3.7-2.4,19-12.2,20.9-13.2c8.4-4.9,16.8-10.2,24.9-15.6
			c3.7-2.4,16.9-9.8,9.9-15.1c-3.9-3-9.2-3.9-14-3.6c-8.8,0.7-17.6,2.4-26.3,3.7c-11.9,1.7-23.4,4.8-34.9,8.1
			C69.4,27.6,56.6,31.7,44,36.2c-3.8,1.4-7.7,2.7-11.5,4c-1,0.4-2.1,0.7-3.2,1c-2.3,0.6-4.2,0.4-6.5,0.4c-1.7,0-2.9,1.4-2.9,3.1
			c0,2,2,3.2,3.7,3.9c4.3,1.6,9.2-0.7,13.2-2.2c4.6-1.8,9.1-3.6,13.7-5.4c9.2-3.7,18.7-6.6,28.2-9.5c18.8-5.7,38.3-10.3,57.9-12.1
			c4.3-0.4,9.6-1.1,13.8,0.4c-7.3,6.1-15.9,10.9-23.9,16c-7.7,4.9-15.5,9.6-23.2,14.6c-4.9,3.2-9.7,6.6-14.4,10
			c-6.5,4.7-13.2,9.4-19.3,14.5c-5,4.2-10.2,8-15,12.4c-2.8,2.5-5.4,5.1-8.1,7.6c-4.8,4.6-9.2,9.2-13.5,14.1c-3.5,4-7.1,8-10.2,12.4
			c-1.7,2.5-3.3,4.9-2.7,8.1c0.5,2.6,2.1,4.8,4.8,5.1c7.5,0.8,14.2-1.3,21-4.2c9.4-3.9,18.6-8.1,27.9-12.3c6.9-3.1,13.9-6,20.8-9.1
			c3.5-1.5,7.1-2.9,10.6-4.3c3.4-1.3,7-3.6,10.6-4.3c-2.5,3-5.6,5.6-8.4,8.3c-2.3,2.4-5,4.7-6.3,7.8c-1.4,3.2-1.5,7.4,0.6,10.4
			c1.8,2.4,5.9,2.7,8.5,1.7c3.3-1.2,5.9-3.8,8.6-5.9c3-2.3,5.7-5,8.6-7.4c0.7-0.6,2.5-2.8,3.4-2.8c1,0,0.5,1.2,0.5,1.9
			c0,0.9,0.1,1.8,0.5,2.7c0.6,1.3,1.6,2.5,2.8,3.4c1.3,1,3,1,4.6,0.9c4.1-0.3,8.3-1.7,12.1-3.2c2.1-0.8,4.2-1.6,6.3-2.6
			c1.7-0.8,3.4-2.1,5.3-2.5c-1.1,3.8-1.3,7.3,1.7,10.3c3,3,7.4,1.4,10.5-0.8c3.8-2.6,7.6-5.4,11.3-8.1c0.5-0.3,1.8-1.6,2.4-1.6
			c0.9,0,0.7,0.9,0.8,1.8c0.4,2,1.5,4.4,2.9,5.8c3.1,3,9.3,1.1,12.8-0.1c4.4-1.4,8.8-3.2,13.1-4.9c2-0.8,4-1.9,6.1-2.5
			c2.4-0.7,3.4,0,5.1,1.5c3.1,2.8,7.6,2,11.4,1.7c2.5-0.2,4.4-0.5,6.7,0.7c2,1,4.1,1.6,6.3,1.2c2-0.4,3-1.5,3.3-3.5
			C257.8,113.2,257.9,111.7,256,111z M138.9,95.2c-1.4,1.3-8.7,7.9-9.9,9c-2.3,2.1-4.6,4.2-6.9,6.2c-2.4,2-4.8,4-7.3,6
			c-1.8,1.4-4.5,4.5-7,4.5c2.4-4.9,6.8-8.5,10.7-12.2c2-1.9,4.1-3.7,6.3-5.4c1.9-1.5,14.3-9.8,16.4-10.1
			C140.5,93.8,139.7,94.5,138.9,95.2z"/>
	</g>
</g>
</svg>
