<svg xmlns="http://www.w3.org/2000/svg" viewBox="0 0 147.06 158.61"><defs><style>.cls-1{fill:#357f97;}.cls-2{fill:#7acbbb;}.cls-3{fill:#fff;}</style></defs><title>stake</title><g id="Layer_2" data-name="Layer 2"><g id="Layer_1-2" data-name="Layer 1"><ellipse class="cls-1" cx="75.36" cy="57.58" rx="39.82" ry="42.74"/><path class="cls-1" d="M73.81,106.55s29.8-1.78,63.62,16.91c0,0,11.57,7.12,9.34,25.81,0,0,1.34,9.34-12.9,9.34H10.63S.39,158.16.39,149.27c0,0-1.78-12.46,2.23-17.8,0,0,.44-10.68,38.71-20.91Z"/><path class="cls-2" d="M58.23,18.91S74.61-13.45,113.56,6.5a28.06,28.06,0,0,1,14.22,16.74c2.12,7.06,1.08,14.33-13.48,12.55a45.61,45.61,0,0,1-18.62-6.71C88,24.3,73.13,16.73,58.23,18.91Z"/><path class="cls-2" d="M60.88,16.1s-23.5-3.5-24,25.5C36.88,41.6,59.38,30.6,60.88,16.1Z"/><path class="cls-3" d="M38,46.34l-1.07-4.75c.69-.13,1.38-.27,2.07-.38,1.18-.18,2.37-.37,3.55-.49,1.6-.17,3.2-.35,4.8-.4,2.73-.09,5.46-.13,8.19-.08,1.72,0,3.44.21,5.15.39s3.39.35,5.06.65c2,.35,3.9.79,5.83,1.27a14.56,14.56,0,0,0,5.86.57c1.09-.17,2.15-.49,3.23-.73,1.59-.35,3.18-.73,4.78-1s3-.5,4.5-.66,3.32-.35,5-.4c2.63-.08,5.26-.13,7.89-.07,1.81,0,3.63.22,5.44.4,1.58.16,3.16.4,4.74.62.59.09,1.17.21,1.79.33l-1.06,4.76a2.49,2.49,0,0,0-2,.8,3.76,3.76,0,0,0-.63,1.58c-.31,1.28-.58,2.57-.94,3.83-.49,1.72-1,3.43-1.58,5.12a8.59,8.59,0,0,1-4.93,5.18,13.08,13.08,0,0,1-3.52.93,23.68,23.68,0,0,1-5.18.29c-1.24-.08-2.46-.29-3.69-.48a16,16,0,0,1-4.69-1.66,7.42,7.42,0,0,1-2.31-2,29.06,29.06,0,0,1-4.47-7.62c-.45-1.07-1-2.11-1.39-3.18a2.57,2.57,0,0,0-1-1.34,2.9,2.9,0,0,0-3.93.8c-.38.7-.63,1.48-1,2.21-.78,1.69-1.53,3.4-2.39,5A20.36,20.36,0,0,1,66.8,60.6a9.67,9.67,0,0,1-3.74,2.23A20.8,20.8,0,0,1,54,64a29.59,29.59,0,0,1-4.39-.64A9.43,9.43,0,0,1,44.24,60a8,8,0,0,1-1.35-2.76c-.64-2.1-1.24-4.22-1.83-6.33-.26-.92-.44-1.87-.68-2.79C40.1,47,39.37,46.46,38,46.34ZM97,62.06a15.51,15.51,0,0,0,5.44-.92,6.2,6.2,0,0,0,3.67-3.49,23.35,23.35,0,0,0,1.63-5.48,15.43,15.43,0,0,0,.17-5.42,4.43,4.43,0,0,0-1.2-2.55,5.73,5.73,0,0,0-3.33-1.55c-2-.25-4-.44-6.06-.54a35.7,35.7,0,0,0-8.81.67A15.91,15.91,0,0,0,84.65,44a5.3,5.3,0,0,0-1.8,1.29,3.22,3.22,0,0,0-.75,2,18.65,18.65,0,0,0,.71,4.93,21.37,21.37,0,0,0,1,2.83,12,12,0,0,0,2.14,3.57,9.63,9.63,0,0,0,5,2.89A24.49,24.49,0,0,0,97,62.06Zm-42.29,0a22.62,22.62,0,0,0,6.68-.78,9.21,9.21,0,0,0,4.2-2.57A12.84,12.84,0,0,0,68,54.81a23.3,23.3,0,0,0,1.59-7A3.35,3.35,0,0,0,69,45.62a5.55,5.55,0,0,0-2.75-2,17.41,17.41,0,0,0-4.32-1.07,46.84,46.84,0,0,0-4.72-.47c-1.89,0-3.79,0-5.68.15a24.42,24.42,0,0,0-4.09.58A4.47,4.47,0,0,0,43.68,47a15,15,0,0,0,0,3.79,23.9,23.9,0,0,0,1.45,6,9.27,9.27,0,0,0,1.55,2.78,6.92,6.92,0,0,0,3.05,1.8A15.73,15.73,0,0,0,54.72,62.06Z"/></g></g></svg>