<?xml version="1.0" encoding="utf-8"?>
<!-- Generator: Adobe Illustrator 23.0.2, SVG Export Plug-In . SVG Version: 6.00 Build 0)  -->
<svg version="1.1" id="Layer_1" xmlns="http://www.w3.org/2000/svg" xmlns:xlink="http://www.w3.org/1999/xlink" x="0px" y="0px"
	 viewBox="0 0 75 75" style="enable-background:new 0 0 75 75;" xml:space="preserve">
<style type="text/css">
	.st0{fill:#97C8B9;}
</style>
<path class="st0" d="M36.7,64.7c-0.3-0.2-0.7-0.4-1-0.5c-3.1-1.3-4.7-4.3-4.1-7.6c0.6-3,3.4-5.3,6.5-5.3c3.2,0,6,2.4,6.6,5.7
	c0.5,3-1.3,6.1-4.2,7.3c-0.4,0.1-0.7,0.3-1.1,0.5C38.5,64.7,37.6,64.7,36.7,64.7z"/>
<path class="st0" d="M14,64.7c-0.3-0.2-0.7-0.4-1-0.5c-3.1-1.3-4.7-4.3-4.1-7.6c0.6-3,3.4-5.3,6.5-5.3c3.2,0,6,2.4,6.6,5.6
	c0.5,3-1.3,6.1-4.2,7.3c-0.4,0.1-0.7,0.3-1.1,0.5C15.7,64.7,14.8,64.7,14,64.7z"/>
<path class="st0" d="M59.7,64.7c-2.8-0.9-5-2.5-5.4-5.7c-0.5-3.5,1.6-6.7,4.9-7.5c3.4-0.8,6.9,1.1,8,4.4c1.1,3.4-0.6,6.9-3.9,8.2
	c-0.4,0.2-0.8,0.4-1.2,0.5C61.3,64.7,60.5,64.7,59.7,64.7z"/>
<path class="st0" d="M40.3,39.8c0,2.4,0,4.6,0,6.8c0,1.6-0.8,2.5-2.1,2.6c-1.3,0-2.1-0.9-2.1-2.5c0-2.3,0-4.6,0-6.9
	c-6.2,0-12.3,0-18.6,0c0,1.2,0,2.4,0,3.5c0,1.2,0.1,2.4,0,3.6c-0.1,1.2-0.8,2-2,2c-1.2,0-2.1-0.6-2.1-1.8c-0.1-3.2-0.1-6.5,0-9.7
	c0.1-1.5,1.3-1.9,2.6-1.9c6,0,12.1,0,18.1,0c0.6,0,1.2,0,2,0c0-2.2,0-4.3,0-6.4c0-1.5,0.8-2.4,2.1-2.3c1.2,0,2,0.8,2.1,2.3
	c0,2.1,0,4.2,0,6.4c0.6,0,1.1,0.1,1.6,0.1c6,0,12.1,0,18.1,0c2.4,0,3,0.6,3,3c0,2.7,0,5.5,0,8.2c0,1.6-0.8,2.5-2.1,2.5
	c-1.3,0-2.1-0.9-2.1-2.6c0-2.2,0-4.5,0-6.8C52.7,39.8,46.6,39.8,40.3,39.8z"/>
<path class="st0" d="M38,23.8c-3.7,0-6.6-3.1-6.5-6.8c0.1-3.7,3.1-6.6,6.8-6.5c3.7,0.1,6.6,3.1,6.5,6.8C44.7,20.9,41.7,23.8,38,23.8
	z"/>
</svg>
