<svg xmlns="http://www.w3.org/2000/svg" xmlns:xlink="http://www.w3.org/1999/xlink" viewBox="0 0 54.38 34.24"><defs><style>.cls-1{fill:#911a1d;}.cls-2{fill:url(#linear-gradient);}.cls-3{fill:none;}.cls-4{fill:url(#linear-gradient-2);}</style><linearGradient id="linear-gradient" y1="20.18" x2="26.09" y2="20.18" gradientUnits="userSpaceOnUse"><stop offset="0" stop-color="#a71213"/><stop offset="0.01" stop-color="#aa1314"/><stop offset="0.07" stop-color="#c3181a"/><stop offset="0.14" stop-color="#d61b1e"/><stop offset="0.22" stop-color="#e31e22"/><stop offset="0.32" stop-color="#eb2023"/><stop offset="0.52" stop-color="#ed2024"/><stop offset="0.67" stop-color="#ea1f23"/><stop offset="0.77" stop-color="#e21e21"/><stop offset="0.86" stop-color="#d31b1e"/><stop offset="0.94" stop-color="#be1718"/><stop offset="1" stop-color="#a71213"/></linearGradient><linearGradient id="linear-gradient-2" x1="30.42" y1="18.12" x2="54.38" y2="18.12" gradientUnits="userSpaceOnUse"><stop offset="0" stop-color="#a71213"/><stop offset="0.01" stop-color="#aa1314"/><stop offset="0.07" stop-color="#c3181a"/><stop offset="0.14" stop-color="#d61b1e"/><stop offset="0.22" stop-color="#e31e22"/><stop offset="0.32" stop-color="#eb2023"/><stop offset="0.52" stop-color="#ed2024"/><stop offset="0.63" stop-color="#d41b1e"/><stop offset="0.77" stop-color="#bb1618"/><stop offset="0.9" stop-color="#ac1314"/><stop offset="1" stop-color="#a71213"/></linearGradient></defs><title>logo</title><g id="Layer_2" data-name="Layer 2"><g id="Layer_1-2" data-name="Layer 1"><path class="cls-1" d="M26.77,4.33V2.93A2.64,2.64,0,0,0,24.13.3H6.36A5.1,5.1,0,0,0,1.3,6.08H19.17l0,0h7L26.18,6A2.71,2.71,0,0,0,26.77,4.33Z"/><path class="cls-2" d="M19.14,6.12,1.69,27.22A7.38,7.38,0,0,0,0,31.92a2.32,2.32,0,0,0,2.32,2.32l6.39-6.39L26.09,6.12Z"/><path class="cls-3" d="M39.33,5.89l.21,0Z"/><path class="cls-3" d="M42,5.75h0Z"/><path d="M42.36,5.79a1.73,1.73,0,0,0-.32,0C42.15,5.76,42.25,5.78,42.36,5.79Z"/><path d="M42,5.75c-.25,0-.5,0-.76,0a10,10,0,0,0-1.65.15,11.26,11.26,0,0,1,1.72-.13Z"/><path class="cls-4" d="M54.38,24.24a9.1,9.1,0,0,0-.76-3.9,7.93,7.93,0,0,0-2.16-2.73l-.33-.24a12.47,12.47,0,0,0-3.08-1.65c-1.34-.5-2.83-1-4.47-1.42-1.26-.31-2.38-.62-3.34-.9a11.75,11.75,0,0,1-2.39-1,4.27,4.27,0,0,1-1.44-1.2,2.6,2.6,0,0,1-.5-1.73C36,7.53,38.39,6,38,6.24a10.16,10.16,0,0,0-5.6,4.46,14.74,14.74,0,0,0-2,4.36,6.94,6.94,0,0,0,.7.86c.14.15.28.3.43.44a11.08,11.08,0,0,0,3,1.85,30.76,30.76,0,0,0,4.19,1.44l3.6,1a17.11,17.11,0,0,1,2.59,1A11.27,11.27,0,0,1,52.61,30a8.54,8.54,0,0,0,.75-1.16A9.73,9.73,0,0,0,54.38,24.24Z"/><path class="cls-1" d="M44.89,21.66l.16.07a5.27,5.27,0,0,1,1.75,1.33,2.54,2.54,0,0,1,.43.77,3.14,3.14,0,0,1,.19,1.08q0,3.45-5.4,3.45h-.17v.09H8.22l.49-.6L2.32,34.24h39.6a20.12,20.12,0,0,0,4.71-.55,11.85,11.85,0,0,0,4-1.73,8.19,8.19,0,0,0,2-1.94A11.27,11.27,0,0,0,44.89,21.66Z"/><path class="cls-1" d="M36.56,6.84a6.61,6.61,0,0,1,1.19-.51,9.22,9.22,0,0,1,1.58-.44l.21,0a10,10,0,0,1,1.65-.15c.26,0,.51,0,.76,0H42a1.73,1.73,0,0,1,.32,0,11,11,0,0,1,1.88.32A49.47,49.47,0,0,1,50.3,9l1.16-2.11a3.66,3.66,0,0,0-1.68-5.08c-.57-.26-1.17-.5-1.8-.74A18.57,18.57,0,0,0,41.45,0a16,16,0,0,0-4.78.69,11.78,11.78,0,0,0-3.91,2A9.19,9.19,0,0,0,30.13,6a10.49,10.49,0,0,0-.95,4.55,8.45,8.45,0,0,0,.6,3.34,6.56,6.56,0,0,0,.64,1.16,14,14,0,0,1,2-4.25A10.1,10.1,0,0,1,36.56,6.84Z"/></g></g></svg>